<svg width="450" height="2349" viewBox="0 0 450 2349" fill="none" xmlns="http://www.w3.org/2000/svg">
<rect x="80" y="2063" width="13" height="100" rx="6.5" fill="#D9D9D9"/>
<rect x="311" y="2013" width="13" height="100" rx="6.5" fill="#D9D9D9"/>
<rect x="311" y="1849" width="13" height="100" rx="6.5" fill="#D9D9D9"/>
<rect x="311" y="1700" width="13" height="100" rx="6.5" fill="#D9D9D9"/>
<rect x="177" y="1643" width="13" height="100" rx="6.5" fill="#D9D9D9"/>
<rect x="178" y="1471" width="13" height="100" rx="6.5" fill="#D9D9D9"/>
<rect x="357" y="1360" width="13" height="100" rx="6.5" fill="#D9D9D9"/>
<rect x="357" y="1224" width="13" height="100" rx="6.5" fill="#D9D9D9"/>
<rect x="357" y="1088" width="13" height="100" rx="6.5" fill="#D9D9D9"/>
<rect x="357" y="948" width="13" height="100" rx="6.5" fill="#D9D9D9"/>
<rect x="225" y="798" width="13" height="100" rx="6.5" fill="#D9D9D9"/>
<rect x="225" y="619" width="13" height="100" rx="6.5" fill="#D9D9D9"/>
<rect x="357" y="375" width="13" height="100" rx="6.5" fill="#D9D9D9"/>
<rect x="123" y="220" width="13" height="100" rx="6.5" fill="#D9D9D9"/>
</svg>
