<svg width="971" height="2349" viewBox="0 0 971 2349" fill="none" xmlns="http://www.w3.org/2000/svg">
<rect x="80" y="2087" width="13" height="100" rx="6.5" fill="#D9D9D9"/>
<rect x="311" y="2037" width="13" height="100" rx="6.5" fill="#D9D9D9"/>
<rect x="311" y="1873" width="13" height="100" rx="6.5" fill="#D9D9D9"/>
<rect x="80" y="1753" width="13" height="100" rx="6.5" fill="#D9D9D9"/>
<rect x="317" y="1545" width="13" height="100" rx="6.5" fill="#D9D9D9"/>
<rect x="523" y="1445" width="13" height="100" rx="6.5" fill="#D9D9D9"/>
<rect x="722" y="1320" width="13" height="100" rx="6.5" fill="#D9D9D9"/>
<rect x="775" y="1175" width="13" height="100" rx="6.5" fill="#D9D9D9"/>
<rect x="583" y="946" width="13" height="100" rx="6.5" fill="#D9D9D9"/>
<rect x="782" y="770" width="13" height="100" rx="6.5" fill="#D9D9D9"/>
<rect x="639" y="531" width="13" height="100" rx="6.5" fill="#D9D9D9"/>
<rect x="652" y="241" width="13" height="100" rx="6.5" fill="#D9D9D9"/>
</svg>
