<svg width="707" height="2349" viewBox="0 0 707 2349" fill="none" xmlns="http://www.w3.org/2000/svg">
<rect x="283" y="2162" width="13" height="100" rx="6.5" fill="#D9D9D9"/>
<rect x="552" y="2042" width="13" height="100" rx="6.5" fill="#D9D9D9"/>
<rect x="347" y="1857" width="13" height="100" rx="6.5" fill="#D9D9D9"/>
<rect x="604" y="1666" width="13" height="100" rx="6.5" fill="#D9D9D9"/>
<rect x="296" y="1566" width="13" height="100" rx="6.5" fill="#D9D9D9"/>
<rect x="515" y="1366" width="13" height="100" rx="6.5" fill="#D9D9D9"/>
<rect x="186" y="1316" width="13" height="100" rx="6.5" fill="#D9D9D9"/>
<rect x="186" y="1082" width="13" height="100" rx="6.5" fill="#D9D9D9"/>
<rect x="403" y="1004" width="13" height="100" rx="6.5" fill="#D9D9D9"/>
<rect x="565" y="923" width="13" height="100" rx="6.5" fill="#D9D9D9"/>
<rect x="403" y="811" width="13" height="100" rx="6.5" fill="#D9D9D9"/>
<rect x="565" y="652" width="13" height="100" rx="6.5" fill="#D9D9D9"/>
<rect x="565" y="530" width="13" height="100" rx="6.5" fill="#D9D9D9"/>
<rect x="565" y="408" width="13" height="100" rx="6.5" fill="#D9D9D9"/>
<rect x="283" y="397" width="13" height="100" rx="6.5" fill="#D9D9D9"/>
<rect x="565" y="286" width="13" height="100" rx="6.5" fill="#D9D9D9"/>
<rect x="130" y="322" width="13" height="100" rx="6.5" fill="#D9D9D9"/>
<rect x="130" y="199" width="13" height="100" rx="6.5" fill="#D9D9D9"/>
<rect x="130" y="76" width="13" height="100" rx="6.5" fill="#D9D9D9"/>
</svg>
